<svg xmlns="http://www.w3.org/2000/svg" version="1.1" x="0" y="0" viewBox="0 0 377.7 305.6" enable-background="new 0 0 377.7 305.6" xml:space="preserve"><path fill="#807F7F" d="M325.6 256.3c-3.4 0-6.2-2.8-6.2-6.2 0-3.4 2.8-6.2 6.2-6.2 8.2 0 15.1-5.2 15.1-11.3V68.4c0-6.1-6.9-11.3-15.1-11.3 -3.4 0-6.2-2.8-6.2-6.2 0-3.4 2.8-6.2 6.2-6.2 15.1 0 27.5 10.6 27.5 23.7v164.2C353 245.7 340.7 256.3 325.6 256.3zM325.6 256.5c-3.5 0-6.3-2.8-6.3-6.3 0-3.5 2.8-6.3 6.3-6.3 8.1 0 14.9-5.1 14.9-11.2V68.4c0-6.1-6.8-11.2-14.9-11.2 -3.5 0-6.3-2.8-6.3-6.3 0-3.5 2.8-6.3 6.3-6.3 15.2 0 27.6 10.7 27.6 23.9v164.2C353.2 245.8 340.8 256.5 325.6 256.5zM325.6 44.8c-3.3 0-6.1 2.7-6.1 6.1 0 3.3 2.7 6.1 6.1 6.1 8.2 0 15.2 5.2 15.2 11.5v164.2c0 6.2-7 11.5-15.2 11.5 -3.3 0-6.1 2.7-6.1 6.1 0 3.3 2.7 6.1 6.1 6.1 15.1 0 27.3-10.6 27.3-23.6V68.4C352.9 55.4 340.7 44.8 325.6 44.8z"/><path fill="#807F7F" d="M52.1 256.3c-15.1 0-27.5-10.6-27.5-23.7V68.4c0-13.1 12.3-23.7 27.5-23.7 3.4 0 6.2 2.8 6.2 6.2 0 3.4-2.8 6.2-6.2 6.2 -8.2 0-15.1 5.2-15.1 11.3v164.2c0 6.1 6.9 11.3 15.1 11.3 3.4 0 6.2 2.8 6.2 6.2C58.3 253.6 55.5 256.3 52.1 256.3zM52.1 256.5c-15.2 0-27.6-10.7-27.6-23.9V68.4c0-13.2 12.4-23.9 27.6-23.9 3.5 0 6.3 2.8 6.3 6.3 0 3.5-2.8 6.3-6.3 6.3 -8.1 0-14.9 5.1-14.9 11.2v164.2c0 6.1 6.8 11.2 14.9 11.2 3.5 0 6.3 2.8 6.3 6.3C58.4 253.6 55.6 256.5 52.1 256.5zM52.1 44.8c-15.1 0-27.3 10.6-27.3 23.6v164.2c0 13 12.3 23.6 27.3 23.6 3.3 0 6.1-2.7 6.1-6.1 0-3.3-2.7-6.1-6.1-6.1 -8.2 0-15.2-5.2-15.2-11.5V68.4c0-6.2 7-11.5 15.2-11.5 3.3 0 6.1-2.7 6.1-6.1C58.2 47.6 55.4 44.8 52.1 44.8z"/><path fill="#807F7F" d="M124.4 45c-2.4 0-4.4-2-4.4-4.4 0-3-2.5-5.5-5.5-5.5H89.8c-3 0-5.5 2.5-5.5 5.5 0 2.4-2 4.4-4.4 4.4 -2.4 0-4.4-2-4.4-4.4 0-7.9 6.4-14.3 14.3-14.3h24.8c7.9 0 14.3 6.4 14.3 14.3C128.9 43.1 126.9 45 124.4 45zM124.4 45.2c-2.5 0-4.6-2-4.6-4.6 0-2.9-2.4-5.3-5.3-5.3H89.8c-2.9 0-5.3 2.4-5.3 5.3 0 2.5-2 4.6-4.6 4.6 -2.5 0-4.6-2-4.6-4.6 0-8 6.5-14.5 14.5-14.5h24.8c8 0 14.5 6.5 14.5 14.5C129 43.1 126.9 45.2 124.4 45.2zM89.8 35h24.8c3.1 0 5.6 2.5 5.6 5.6 0 2.4 1.9 4.3 4.3 4.3s4.3-1.9 4.3-4.3c0-7.8-6.4-14.2-14.2-14.2H89.8c-7.8 0-14.2 6.4-14.2 14.2 0 2.4 1.9 4.3 4.3 4.3 2.4 0 4.3-1.9 4.3-4.3C84.2 37.5 86.7 35 89.8 35z"/><path fill="#0098CC" d="M336.6 215.6v1.1h-11v-2.4c0-1.9 1-3 2.9-3 2 0 3.2 1.1 3.2 2.7v1.6H336.6zM330.8 215.6l0-1.5c0-1-0.8-1.6-2.2-1.6 -1.3 0-1.9 0.7-1.9 1.9v1.3H330.8zM325.7 207.4v-1.1h4.6v-3.4h-4.6v-1.1h11v1.1h-5.4v3.4h5.4v1.1H325.7zM331.1 191.7c1.4 0 5.6 0 5.6 3 0 3.1-4.2 3-5.6 3 -1.8 0-5.6-0.1-5.6-3C325.5 191.7 329.7 191.7 331.1 191.7zM331.1 196.7c3 0 4.6-0.3 4.6-1.9 0-1.9-2.7-1.9-4.6-1.9 -2.1 0-4.6 0-4.6 1.9S329.5 196.7 331.1 196.7zM326.7 185.4v2.4h-1V182h1v2.3h10v1.1H326.7zM331.1 172c1.4 0 5.6 0 5.6 3 0 3.1-4.2 3-5.6 3 -1.8 0-5.6-0.1-5.6-3C325.5 172 329.7 172 331.1 172zM331.1 177c3 0 4.6-0.3 4.6-1.9 0-1.9-2.7-1.9-4.6-1.9 -2.1 0-4.6 0-4.6 1.9S329.5 177 331.1 177zM325.7 167.5v-3c0-1.1 0.9-2.4 2.9-2.4 1.3 0 2.6 0.5 3.1 1.9l4.7-2.3 0.5 1 -5.1 2.5v1.2h4.9v1.1H325.7zM330.8 166.4v-1.6c0-1-0.7-1.5-2.2-1.5 -1.4 0-1.9 0.7-1.9 1.8v1.3H330.8zM325.7 157.7v-5.3h1v4.2h3.6v-3.5h1v3.5h4.4v-4.2h1v5.3H325.7zM335.8 142.6c0.6 0.7 1 1.6 1 2.5 0 2.8-3.4 3.3-5.6 3.3 -2.1 0-5.6-0.5-5.6-3.2 0-1.2 0.8-2.1 1.8-2.7l0.6 1c-0.7 0.4-1.3 1-1.3 1.8 0 1.8 3.3 2 4.6 2 3.8 0 4.5-1.1 4.5-2.2 0-0.5-0.2-1.1-0.5-1.4h-3.3v2.1h-1v-3.2H335.8zM326.7 136.2v1.5h-1v-4.1h1v1.5h9v-1.5h1v4.1h-1v-1.5H326.7zM328.2 124.2c-0.8 0.2-1.6 0.6-1.6 1.5 0 1 0.8 1.4 1.8 1.4 0.9 0 1.2-0.2 2.2-1.9 0.8-1.3 1.5-2.3 3.2-2.3 1.7 0 3.1 0.9 3.1 2.8 0 1.9-1.3 2.6-3 2.8l-0.1-1.1c1.2-0.1 2.1-0.4 2.1-1.7 0-1-0.6-1.6-2-1.6 -1.4 0-1.9 0.9-2.6 2.1 -0.7 1.3-1.3 2.1-2.9 2.1 -1.5 0-2.8-1-2.8-2.5 0-1.5 1.1-2.3 2.5-2.6L328.2 124.2zM326.7 116.5v2.4h-1v-5.8h1v2.3h10v1.1H326.7zM325.7 108.4v-5.3h1v4.2h3.6v-3.5h1v3.5h4.4v-4.2h1v5.3H325.7zM325.7 98.5v-3c0-1.1 0.9-2.4 2.9-2.4 1.3 0 2.6 0.5 3.1 1.9l4.7-2.3 0.5 1 -5.1 2.5v1.2h4.9v1.1H325.7zM330.8 97.4v-1.6c0-1-0.7-1.5-2.2-1.5 -1.4 0-1.9 0.7-1.9 1.8v1.3H330.8zM326.2 87.5c-0.5 0.1-0.9 0.3-0.9 0.9 0 0.6 0.5 0.8 1 0.8 0.5 0 0.7-0.1 1.3-1.1 0.5-0.8 0.9-1.3 1.8-1.3 1 0 1.8 0.5 1.8 1.6 0 1.1-0.7 1.5-1.8 1.6l-0.1-0.6c0.7-0.1 1.2-0.2 1.2-1 0-0.6-0.4-0.9-1.1-0.9 -0.8 0-1.1 0.5-1.5 1.2 -0.4 0.7-0.7 1.2-1.7 1.2 -0.9 0-1.6-0.6-1.6-1.5 0-0.9 0.6-1.3 1.4-1.5L326.2 87.5zM324.8 81.8V81l6.4-0.2v0.7l-5.3 0.1v0l3.2 1.1 -3.2 1.1v0l5.3 0.1v0.7l-6.4-0.2v-0.8l2.7-0.9L324.8 81.8z"/><path fill="#807F7F" d="M189.1 256.9c-54.5 0-98.8-44.3-98.8-98.8 0-54.5 44.3-98.8 98.8-98.8 54.5 0 98.8 44.3 98.8 98.8C287.9 212.6 243.6 256.9 189.1 256.9zM189.1 72c-47.5 0-86.2 38.6-86.2 86.2 0 47.5 38.6 86.2 86.2 86.2 47.5 0 86.2-38.6 86.2-86.2C275.3 110.6 236.6 72 189.1 72zM189.1 257.1c-54.6 0-98.9-44.4-98.9-98.9s44.4-98.9 98.9-98.9 98.9 44.4 98.9 98.9S243.7 257.1 189.1 257.1zM189.1 59.4c-54.4 0-98.7 44.3-98.7 98.7s44.3 98.7 98.7 98.7 98.7-44.3 98.7-98.7S243.5 59.4 189.1 59.4zM189.1 244.4c-47.6 0-86.3-38.7-86.3-86.3 0-47.6 38.7-86.3 86.3-86.3s86.3 38.7 86.3 86.3C275.4 205.7 236.7 244.4 189.1 244.4zM189.1 72.1c-47.4 0-86 38.6-86 86 0 47.4 38.6 86 86 86s86-38.6 86-86C275.2 110.7 236.6 72.1 189.1 72.1z"/><path d="M361.4 277.3c6.5 0 11.7 5.3 11.7 11.7s-5.3 11.7-11.7 11.7 -11.7-5.3-11.7-11.7S354.9 277.3 361.4 277.3M361.4 272.8c-9 0-16.3 7.3-16.3 16.3 0 9 7.3 16.3 16.3 16.3 9 0 16.3-7.3 16.3-16.3C377.7 280.1 370.4 272.8 361.4 272.8L361.4 272.8z"/><circle cx="361.4" cy="289.1" r="7"/><path d="M16.4 277.4c6.5 0 11.8 5.3 11.8 11.8S22.9 301 16.4 301s-11.8-5.3-11.8-11.8S9.9 277.4 16.4 277.4M16.4 272.9c-9 0-16.4 7.3-16.4 16.4s7.3 16.4 16.4 16.4 16.4-7.3 16.4-16.4S25.4 272.9 16.4 272.9L16.4 272.9z"/><circle cx="16.4" cy="289.2" r="7"/><path d="M361.2 4.6c6.5 0 11.9 5.3 11.9 11.9s-5.3 11.9-11.9 11.9 -11.9-5.3-11.9-11.9S354.7 4.6 361.2 4.6M361.2 0c-9.1 0-16.4 7.4-16.4 16.4s7.4 16.4 16.4 16.4 16.4-7.4 16.4-16.4S370.3 0 361.2 0L361.2 0z"/><circle cx="361.2" cy="16.4" r="7"/><path d="M16.4 4.6c6.5 0 11.9 5.3 11.9 11.9S23 28.3 16.4 28.3 4.6 23 4.6 16.4 9.9 4.6 16.4 4.6M16.4 0C7.4 0 0 7.4 0 16.4s7.4 16.4 16.4 16.4 16.4-7.4 16.4-16.4S25.5 0 16.4 0L16.4 0z"/><circle cx="16.4" cy="16.4" r="7"/><rect x="36.9" y="284" width="20.5" height="10"/><rect x="316.1" y="284.2" width="24.6" height="10"/></svg>